<svg width="179" height="44" viewBox="0 0 179 44" fill="none" xmlns="http://www.w3.org/2000/svg">
<path d="M53.8853 30.7317H66.4701V26.7805H58.3582V11.8975H53.8853V30.7317Z" fill="#0D1E00"/>
<path d="M73.9261 28.0975C72.1319 28.0975 71.1968 26.4644 71.1968 24.0146C71.1968 21.5648 72.1319 19.9053 73.9261 19.9053C75.7203 19.9053 76.6806 21.5648 76.6806 24.0146C76.6806 26.4644 75.7203 28.0975 73.9261 28.0975ZM73.9513 31.1531C78.121 31.1531 80.8502 28.0712 80.8502 24.0146C80.8502 19.958 78.121 16.8761 73.9513 16.8761C69.807 16.8761 67.0272 19.958 67.0272 24.0146C67.0272 28.0712 69.807 31.1531 73.9513 31.1531Z" fill="#0D1E00"/>
<path d="M88.0676 35.3941C89.9882 35.3941 91.6813 34.9463 92.8185 33.8926C93.8546 32.918 94.5369 31.4429 94.5369 29.4146V17.2448H90.5947V18.6936H90.5441C89.786 17.5609 88.6236 16.8497 86.9052 16.8497C83.6958 16.8497 81.472 19.6419 81.472 23.5931C81.472 27.7287 84.1759 29.9941 87.082 29.9941C88.6488 29.9941 89.6344 29.3356 90.3925 28.44H90.4936V29.7834C90.4936 31.4166 89.7607 32.3648 88.0171 32.3648C86.6525 32.3648 85.9701 31.759 85.7427 31.0478H81.7499C82.1543 33.8663 84.5044 35.3941 88.0676 35.3941ZM88.0423 26.8068C86.5008 26.8068 85.49 25.4897 85.49 23.4614C85.49 21.4068 86.5008 20.0897 88.0423 20.0897C89.7607 20.0897 90.6705 21.6175 90.6705 23.4351C90.6705 25.3317 89.8365 26.8068 88.0423 26.8068Z" fill="#0D1E00"/>
<path d="M102.643 28.0975C100.849 28.0975 99.9135 26.4644 99.9135 24.0146C99.9135 21.5648 100.849 19.9053 102.643 19.9053C104.437 19.9053 105.397 21.5648 105.397 24.0146C105.397 26.4644 104.437 28.0975 102.643 28.0975ZM102.668 31.1531C106.838 31.1531 109.567 28.0712 109.567 24.0146C109.567 19.958 106.838 16.8761 102.668 16.8761C98.5236 16.8761 95.7439 19.958 95.7439 24.0146C95.7439 28.0712 98.5236 31.1531 102.668 31.1531Z" fill="#0D1E00"/>
<path d="M110.769 30.7317H114.888V17.2448H110.769V30.7317ZM110.769 15.3746H114.888V11.8975H110.769V15.3746Z" fill="#0D1E00"/>
<path d="M116.676 35.1834H120.795V29.3356H120.846C121.655 30.4683 122.842 31.1531 124.51 31.1531C127.896 31.1531 130.146 28.3609 130.146 23.9883C130.146 19.9317 128.048 16.8497 124.611 16.8497C122.842 16.8497 121.579 17.6663 120.694 18.878H120.619V17.2448H116.676V35.1834ZM123.449 27.8341C121.68 27.8341 120.669 26.3327 120.669 24.1463C120.669 21.96 121.579 20.3005 123.373 20.3005C125.142 20.3005 125.976 21.8283 125.976 24.1463C125.976 26.438 125.016 27.8341 123.449 27.8341Z" fill="#0D1E00"/>
<path d="M136.852 31.1531C140.238 31.1531 142.74 29.6253 142.74 26.6751C142.74 23.2244 140.061 22.6185 137.787 22.2234C136.144 21.9073 134.678 21.7756 134.678 20.8273C134.678 19.9844 135.462 19.5892 136.473 19.5892C137.61 19.5892 138.393 19.958 138.545 21.1697H142.335C142.133 18.5092 140.162 16.8497 136.498 16.8497C133.44 16.8497 130.913 18.3248 130.913 21.1697C130.913 24.3307 133.314 24.9629 135.563 25.358C137.281 25.6741 138.848 25.8058 138.848 27.0175C138.848 27.8868 138.065 28.3609 136.826 28.3609C135.462 28.3609 134.603 27.7024 134.451 26.359H130.559C130.686 29.3356 133.061 31.1531 136.852 31.1531Z" fill="#0D1E00"/>
<path d="M148.335 31.1268C150.129 31.1268 151.267 30.3892 152.202 29.0722H152.277V30.7317H156.22V17.2448H152.1V24.7785C152.1 26.3853 151.241 27.4917 149.826 27.4917C148.512 27.4917 147.88 26.6751 147.88 25.2V17.2448H143.786V26.0956C143.786 29.0985 145.353 31.1268 148.335 31.1268Z" fill="#0D1E00"/>
<path d="M158.011 30.7317H162.13V23.1717C162.13 21.5648 162.888 20.4322 164.177 20.4322C165.415 20.4322 165.996 21.2751 165.996 22.7239V30.7317H170.115V23.1717C170.115 21.5648 170.848 20.4322 172.162 20.4322C173.4 20.4322 173.982 21.2751 173.982 22.7239V30.7317H178.101V21.96C178.101 18.9307 176.635 16.8497 173.704 16.8497C172.036 16.8497 170.646 17.5873 169.635 19.2205H169.585C168.927 17.7717 167.639 16.8497 165.946 16.8497C164.076 16.8497 162.837 17.7717 162.029 19.1678H161.953V17.2448H158.011V30.7317Z" fill="#0D1E00"/>
<path fill-rule="evenodd" clip-rule="evenodd" d="M21.0588 43.9024C32.6893 43.9024 42.1177 34.0745 42.1177 21.9512C42.1177 9.8279 32.6893 0 21.0588 0C9.42834 0 0 9.8279 0 21.9512C0 34.0745 9.42834 43.9024 21.0588 43.9024ZM27.6285 10.2258C27.9482 9.04176 26.8459 8.34161 25.8392 9.08923L11.7857 19.5251C10.6939 20.3359 10.8656 21.9512 12.0437 21.9512H15.7443V21.9213H22.9568L17.08 24.0828L14.4892 33.6767C14.1694 34.8607 15.2717 35.5608 16.2785 34.8132L30.332 24.3773C31.4238 23.5666 31.2519 21.9512 30.074 21.9512H24.4621L27.6285 10.2258Z" fill="#0D1E00"/>
</svg>
