<svg width="48" height="52" viewBox="0 0 48 52" fill="none" xmlns="http://www.w3.org/2000/svg">
<path d="M28.3417 21.0046C33.8331 29.7622 34.2847 41.3571 29.4875 50.5289L29.4866 50.5307C29.2318 51.0211 28.7691 51.3366 28.2533 51.4276C27.8934 51.491 27.5097 51.4391 27.1537 51.2562C26.3136 50.8185 25.9846 49.7752 26.4219 48.9389C30.6661 40.8216 30.2704 30.5811 25.4074 22.8287C20.5582 15.0741 11.5112 10.2429 2.34325 10.509C1.38101 10.5306 0.594603 9.78563 0.56787 8.83089C0.542374 7.88452 1.25914 7.10416 2.24974 7.06082C12.6048 6.76153 22.8568 12.2404 28.3417 21.0046Z" fill="#0D1E00"/>
<path d="M46.2265 26.8185L46.2092 26.8184L46.1919 26.819C45.2348 26.8562 44.4388 26.1249 44.3968 25.1713C44.0365 16.0622 37.928 7.21785 29.5177 3.63897C28.6408 3.26236 28.2365 2.25437 28.6068 1.38241C28.9861 0.513576 29.9986 0.108025 30.8727 0.472639C40.594 4.61442 47.4205 14.4917 47.8437 25.0338C47.8756 25.9048 47.2607 26.6437 46.4216 26.7932C46.3116 26.8126 46.2648 26.8189 46.2265 26.8185Z" fill="#0D1E00"/>
</svg>
