<svg width="53" height="57" viewBox="0 0 53 57" fill="none" xmlns="http://www.w3.org/2000/svg">
<path d="M23.6583 33.8763C18.167 25.1186 17.7153 13.5237 22.5125 4.35197L22.5134 4.35018C22.7682 3.85974 23.2309 3.54425 23.7467 3.4533C24.1066 3.38984 24.4904 3.44171 24.8463 3.62463C25.6864 4.06235 26.0154 5.10563 25.5781 5.94199C21.334 14.0592 21.7296 24.2997 26.5927 32.0522C31.4418 39.8068 40.4888 44.638 49.6568 44.3719C50.619 44.3503 51.4054 45.0952 51.4322 46.05C51.4577 46.9963 50.7409 47.7767 49.7503 47.82C39.3952 48.1193 29.1432 42.6404 23.6583 33.8763Z" fill="#0D1E00"/>
<path d="M5.77354 28.0624L5.79085 28.0625L5.80811 28.0619C6.76527 28.0246 7.56121 28.756 7.60325 29.7095C7.96355 38.8186 14.072 47.663 22.4823 51.2419C23.3592 51.6185 23.7635 52.6265 23.3933 53.4984C23.014 54.3673 22.0015 54.7728 21.1273 54.4082C11.406 50.2664 4.57949 40.3892 4.1563 29.8471C4.12439 28.9761 4.73938 28.2372 5.57838 28.0876C5.68848 28.0683 5.73525 28.0619 5.77354 28.0624Z" fill="#0D1E00"/>
</svg>
