<svg width="46" height="46" viewBox="0 0 46 46" fill="none" xmlns="http://www.w3.org/2000/svg">
<path fill-rule="evenodd" clip-rule="evenodd" d="M18.8873 2.77369C19.4243 2.18418 20.0784 1.71325 20.8078 1.39102C21.5372 1.06878 22.3259 0.902344 23.1233 0.902344C23.9207 0.902344 24.7094 1.06878 25.4388 1.39102C26.1682 1.71325 26.8223 2.18418 27.3593 2.77369L29.4843 5.10769C29.742 5.39109 30.0591 5.61406 30.4129 5.76066C30.7668 5.90725 31.1487 5.97385 31.5313 5.95569L34.6843 5.80869C35.4808 5.77165 36.2762 5.90124 37.0197 6.18916C37.7632 6.47708 38.4384 6.917 39.0022 7.48078C39.566 8.04457 40.0059 8.71981 40.2938 9.46332C40.5818 10.2068 40.7113 11.0022 40.6743 11.7987L40.5273 14.9517C40.5091 15.3343 40.5757 15.7162 40.7223 16.07C40.8689 16.4239 41.0919 16.741 41.3753 16.9987L43.7093 19.1237C44.2988 19.6607 44.7697 20.3148 45.092 21.0442C45.4142 21.7736 45.5807 22.5623 45.5807 23.3597C45.5807 24.1571 45.4142 24.9457 45.092 25.6752C44.7697 26.4046 44.2988 27.0587 43.7093 27.5957L41.3753 29.7217C41.0919 29.9794 40.8689 30.2965 40.7223 30.6503C40.5757 31.0042 40.5091 31.3861 40.5273 31.7687L40.6753 34.9217C40.7123 35.7181 40.5828 36.5136 40.2948 37.2571C40.0069 38.0006 39.567 38.6758 39.0032 39.2396C38.4394 39.8034 37.7642 40.2433 37.0207 40.5312C36.2772 40.8191 35.4818 40.9487 34.6853 40.9117L31.5313 40.7647C31.1487 40.7465 30.7668 40.8131 30.4129 40.9597C30.0591 41.1063 29.742 41.3293 29.4843 41.6127L27.3593 43.9457C26.8223 44.5352 26.1682 45.0061 25.4388 45.3284C24.7094 45.6506 23.9207 45.817 23.1233 45.817C22.3259 45.817 21.5372 45.6506 20.8078 45.3284C20.0784 45.0061 19.4243 44.5352 18.8873 43.9457L16.7623 41.6127C16.5046 41.3293 16.1875 41.1063 15.8337 40.9597C15.4798 40.8131 15.0979 40.7465 14.7153 40.7647L11.5623 40.9117C10.7659 40.9487 9.97044 40.8191 9.22693 40.5312C8.48342 40.2433 7.80818 39.8034 7.24439 39.2396C6.68061 38.6758 6.24069 38.0006 5.95277 37.2571C5.66485 36.5136 5.53526 35.7181 5.5723 34.9217L5.7193 31.7687C5.73746 31.3861 5.67086 31.0042 5.52427 30.6503C5.37767 30.2965 5.1547 29.9794 4.8713 29.7217L2.5373 27.5957C1.94796 27.0587 1.47716 26.4046 1.15503 25.6753C0.832892 24.946 0.666504 24.1575 0.666504 23.3602C0.666504 22.5629 0.832892 21.7744 1.15503 21.0451C1.47716 20.3157 1.94796 19.6617 2.5373 19.1247L4.8713 16.9987C5.1547 16.741 5.37767 16.4239 5.52427 16.07C5.67086 15.7162 5.73746 15.3343 5.7193 14.9517L5.5713 11.7987C5.53426 11.0022 5.66385 10.2068 5.95177 9.46332C6.23969 8.71981 6.67961 8.04457 7.24339 7.48078C7.80718 6.917 8.48242 6.47708 9.22593 6.18916C9.96944 5.90124 10.7649 5.77165 11.5613 5.80869L14.7153 5.95569C15.0979 5.97385 15.4798 5.90725 15.8337 5.76066C16.1875 5.61406 16.5046 5.39109 16.7623 5.10769L18.8873 2.77369ZM25.0483 4.87769C24.8043 4.60981 24.507 4.3958 24.1755 4.24938C23.8441 4.10295 23.4857 4.02731 23.1233 4.02731C22.7609 4.02731 22.4025 4.10295 22.0711 4.24938C21.7396 4.3958 21.4423 4.60981 21.1983 4.87769L19.0723 7.21169C18.5051 7.83464 17.8074 8.32485 17.0291 8.64738C16.2508 8.96991 15.4109 9.11684 14.5693 9.07769L11.4163 8.92969C11.0542 8.91273 10.6926 8.97155 10.3545 9.10239C10.0165 9.23324 9.70946 9.43322 9.45314 9.68953C9.19683 9.94585 8.99685 10.2529 8.866 10.5909C8.73516 10.929 8.67634 11.2906 8.6933 11.6527L8.8403 14.8057C8.87972 15.6474 8.73302 16.4874 8.41066 17.2659C8.0883 18.0444 7.59821 18.7423 6.9753 19.3097L4.6413 21.4347C4.37342 21.6787 4.15942 21.976 4.01299 22.3075C3.86656 22.6389 3.79092 22.9973 3.79092 23.3597C3.79092 23.7221 3.86656 24.0805 4.01299 24.4119C4.15942 24.7434 4.37342 25.0407 4.6413 25.2847L6.9753 27.4107C7.59807 27.978 8.08809 28.6757 8.41045 29.454C8.7328 30.2323 8.87957 31.0722 8.8403 31.9137L8.6933 35.0677C8.67634 35.4298 8.73516 35.7914 8.866 36.1295C8.99685 36.4675 9.19683 36.7745 9.45314 37.0308C9.70946 37.2872 10.0165 37.4871 10.3545 37.618C10.6926 37.7488 11.0542 37.8077 11.4163 37.7907L14.5693 37.6427C15.4108 37.6034 16.2507 37.7502 17.029 38.0725C17.8073 38.3949 18.505 38.8849 19.0723 39.5077L21.1983 41.8417C21.4423 42.1096 21.7396 42.3236 22.0711 42.47C22.4025 42.6164 22.7609 42.6921 23.1233 42.6921C23.4857 42.6921 23.8441 42.6164 24.1755 42.47C24.507 42.3236 24.8043 42.1096 25.0483 41.8417L27.1743 39.5077C27.7416 38.8849 28.4393 38.3949 29.2176 38.0725C29.9959 37.7502 30.8358 37.6034 31.6773 37.6427L34.8303 37.7907C35.1924 37.8077 35.554 37.7488 35.8921 37.618C36.2301 37.4871 36.5371 37.2872 36.7935 37.0308C37.0498 36.7745 37.2498 36.4675 37.3806 36.1295C37.5114 35.7914 37.5703 35.4298 37.5533 35.0677L37.4063 31.9137C37.367 31.0722 37.5138 30.2323 37.8362 29.454C38.1585 28.6757 38.6485 27.978 39.2713 27.4107L41.6053 25.2857C41.8733 25.0416 42.0875 24.7443 42.234 24.4128C42.3805 24.0812 42.4562 23.7227 42.4562 23.3602C42.4562 22.9977 42.3805 22.6392 42.234 22.3076C42.0875 21.9761 41.8733 21.6787 41.6053 21.4347L39.2713 19.3097C38.6484 18.7423 38.1583 18.0444 37.8359 17.2659C37.5136 16.4874 37.3669 15.6474 37.4063 14.8057L37.5533 11.6527C37.5703 11.2906 37.5114 10.929 37.3806 10.5909C37.2498 10.2529 37.0498 9.94585 36.7935 9.68953C36.5371 9.43322 36.2301 9.23324 35.8921 9.10239C35.554 8.97155 35.1924 8.91273 34.8303 8.92969L31.6773 9.07769C30.8357 9.11684 29.9958 8.96991 29.2175 8.64738C28.4392 8.32485 27.7415 7.83464 27.1743 7.21169L25.0483 4.87769Z" fill="white"/>
<path fill-rule="evenodd" clip-rule="evenodd" d="M15.7683 22.2557C16.3783 21.6457 17.3683 21.6457 17.9783 22.2557L21.0403 25.3167L28.2683 18.0887C28.5633 17.805 28.9578 17.6482 29.367 17.6522C29.7763 17.6562 30.1677 17.8205 30.4571 18.1099C30.7465 18.3993 30.9108 18.7907 30.9148 19.2C30.9188 19.6092 30.762 20.0037 30.4783 20.2987L22.1453 28.6317C21.5353 29.2417 20.5453 29.2417 19.9353 28.6317L15.7683 24.4647C15.1583 23.8547 15.1583 22.8657 15.7683 22.2557Z" fill="white"/>
</svg>
