<svg width="205" height="48" viewBox="0 0 205 48" fill="none" xmlns="http://www.w3.org/2000/svg">
<path d="M1 34.1356L1 13.8645L10.8851 19.4954V28.561L18.7933 33.122L26.7013 28.561V19.4954L36.5865 13.8645V34.1356L18.7933 44.2711L1 34.1356Z" fill="#FFD600"/>
<path fill-rule="evenodd" clip-rule="evenodd" d="M5.94257 16.6799L1 13.8645L18.7932 3.72891L36.5865 13.8645L31.6439 16.6799V31.6017L18.7932 39.2034L5.94256 31.6017L5.94257 16.6799ZM31.1085 16.985L26.7013 19.4954L26.7013 19.439L18.7932 14.878L10.8851 19.439V19.4954L6.478 16.985V31.2899L18.7932 38.5748L31.1085 31.2899V16.985Z" fill="#FFD600"/>
<path d="M68.8024 20.5795H64.5524C64.4312 19.8826 64.2077 19.2652 63.8819 18.7273C63.5562 18.1818 63.1509 17.7197 62.666 17.3409C62.1812 16.9621 61.6282 16.678 61.0069 16.4886C60.3933 16.2917 59.7304 16.1932 59.0183 16.1932C57.7532 16.1932 56.6319 16.5114 55.6547 17.1477C54.6774 17.7765 53.9122 18.7008 53.3592 19.9205C52.8062 21.1326 52.5297 22.6136 52.5297 24.3636C52.5297 26.1439 52.8062 27.6439 53.3592 28.8636C53.9198 30.0758 54.685 30.9924 55.6547 31.6136C56.6319 32.2273 57.7494 32.5341 59.0069 32.5341C59.7039 32.5341 60.3554 32.4432 60.9615 32.2614C61.5751 32.072 62.1244 31.7955 62.6092 31.4318C63.1016 31.0682 63.5145 30.6212 63.8479 30.0909C64.1888 29.5606 64.4236 28.9545 64.5524 28.2727L68.8024 28.2955C68.6433 29.4015 68.2986 30.4394 67.7683 31.4091C67.2456 32.3788 66.56 33.2348 65.7115 33.9773C64.863 34.7121 63.8706 35.2879 62.7342 35.7045C61.5979 36.1136 60.3365 36.3182 58.9501 36.3182C56.9047 36.3182 55.0789 35.8447 53.4729 34.8977C51.8668 33.9508 50.6016 32.5833 49.6774 30.7955C48.7532 29.0076 48.291 26.8636 48.291 24.3636C48.291 21.8561 48.7569 19.7121 49.6888 17.9318C50.6206 16.1439 51.8895 14.7765 53.4956 13.8295C55.1016 12.8826 56.9198 12.4091 58.9501 12.4091C60.2456 12.4091 61.4501 12.5909 62.5638 12.9545C63.6774 13.3182 64.6698 13.8523 65.541 14.5568C66.4122 15.2538 67.1282 16.1098 67.6888 17.125C68.2569 18.1326 68.6282 19.2841 68.8024 20.5795ZM76.595 12.7273V36H72.4814V12.7273H76.595ZM88.5524 36.3409C86.8024 36.3409 85.291 35.9773 84.0183 35.25C82.7532 34.5152 81.7797 33.4773 81.0979 32.1364C80.416 30.7879 80.0751 29.2008 80.0751 27.375C80.0751 25.5795 80.416 24.0038 81.0979 22.6477C81.7872 21.2841 82.7494 20.2235 83.9842 19.4659C85.2191 18.7008 86.6698 18.3182 88.3365 18.3182C89.4122 18.3182 90.4274 18.4924 91.3819 18.8409C92.3441 19.1818 93.1925 19.7121 93.9274 20.4318C94.6698 21.1515 95.2532 22.0682 95.6774 23.1818C96.1016 24.2879 96.3138 25.6061 96.3138 27.1364V28.3977H82.0069V25.625H92.3706C92.363 24.8371 92.1925 24.1364 91.8592 23.5227C91.5259 22.9015 91.06 22.4129 90.4615 22.0568C89.8706 21.7008 89.1812 21.5227 88.3933 21.5227C87.5524 21.5227 86.8138 21.7273 86.1774 22.1364C85.541 22.5379 85.0448 23.0682 84.6888 23.7273C84.3403 24.3788 84.1622 25.0947 84.1547 25.875V28.2955C84.1547 29.3106 84.3403 30.1818 84.7115 30.9091C85.0827 31.6288 85.6016 32.1818 86.2683 32.5682C86.935 32.947 87.7153 33.1364 88.6092 33.1364C89.2077 33.1364 89.7494 33.053 90.2342 32.8864C90.7191 32.7121 91.1395 32.4583 91.4956 32.125C91.8516 31.7917 92.1206 31.3788 92.3024 30.8864L96.1433 31.3182C95.9009 32.3333 95.4388 33.2197 94.7569 33.9773C94.0827 34.7273 93.2191 35.3106 92.166 35.7273C91.113 36.1364 89.9085 36.3409 88.5524 36.3409ZM104.817 36.3523C103.711 36.3523 102.714 36.1553 101.828 35.7614C100.949 35.3598 100.252 34.7689 99.7371 33.9886C99.2295 33.2083 98.9757 32.2462 98.9757 31.1023C98.9757 30.1174 99.1575 29.303 99.5211 28.6591C99.8848 28.0152 100.381 27.5 101.01 27.1136C101.639 26.7273 102.347 26.4356 103.135 26.2386C103.93 26.0341 104.752 25.8864 105.601 25.7955C106.623 25.6894 107.453 25.5947 108.089 25.5114C108.726 25.4205 109.188 25.2841 109.476 25.1023C109.771 24.9129 109.919 24.6212 109.919 24.2273V24.1591C109.919 23.303 109.665 22.6402 109.158 22.1705C108.65 21.7008 107.919 21.4659 106.964 21.4659C105.957 21.4659 105.158 21.6856 104.567 22.125C103.983 22.5644 103.589 23.0833 103.385 23.6818L99.5439 23.1364C99.8469 22.0758 100.347 21.1894 101.044 20.4773C101.741 19.7576 102.593 19.2197 103.601 18.8636C104.608 18.5 105.722 18.3182 106.942 18.3182C107.783 18.3182 108.62 18.4167 109.453 18.6136C110.286 18.8106 111.048 19.1364 111.737 19.5909C112.426 20.0379 112.979 20.6477 113.396 21.4205C113.82 22.1932 114.033 23.1591 114.033 24.3182V36H110.078V33.6023H109.942C109.692 34.0871 109.339 34.5417 108.885 34.9659C108.438 35.3826 107.873 35.7197 107.192 35.9773C106.517 36.2273 105.726 36.3523 104.817 36.3523ZM105.885 33.3295C106.711 33.3295 107.426 33.1667 108.033 32.8409C108.639 32.5076 109.104 32.0682 109.43 31.5227C109.764 30.9773 109.93 30.3826 109.93 29.7386V27.6818C109.801 27.7879 109.582 27.8864 109.271 27.9773C108.968 28.0682 108.627 28.1477 108.248 28.2159C107.87 28.2841 107.495 28.3447 107.123 28.3977C106.752 28.4508 106.43 28.4962 106.158 28.5341C105.544 28.6174 104.995 28.7538 104.51 28.9432C104.025 29.1326 103.642 29.3977 103.362 29.7386C103.082 30.072 102.942 30.5038 102.942 31.0341C102.942 31.7917 103.218 32.3636 103.771 32.75C104.324 33.1364 105.029 33.3295 105.885 33.3295ZM122.283 25.7727V36H118.169V18.5455H122.101V21.5114H122.305C122.707 20.5341 123.347 19.7576 124.226 19.1818C125.112 18.6061 126.207 18.3182 127.51 18.3182C128.714 18.3182 129.764 18.5758 130.658 19.0909C131.559 19.6061 132.256 20.3523 132.748 21.3295C133.248 22.3068 133.495 23.4924 133.487 24.8864V36H129.373V25.5227C129.373 24.3561 129.07 23.4432 128.464 22.7841C127.866 22.125 127.036 21.7955 125.976 21.7955C125.256 21.7955 124.616 21.9545 124.055 22.2727C123.502 22.5833 123.067 23.0341 122.748 23.625C122.438 24.2159 122.283 24.9318 122.283 25.7727ZM146.51 18.5455V21.7273H136.192V18.5455H146.51ZM138.771 36V16.8977C138.771 15.7235 139.014 14.7462 139.498 13.9659C139.991 13.1856 140.65 12.6023 141.476 12.2159C142.301 11.8295 143.218 11.6364 144.226 11.6364C144.938 11.6364 145.57 11.6932 146.123 11.8068C146.676 11.9205 147.086 12.0227 147.351 12.1136L146.533 15.2955C146.358 15.2424 146.139 15.1894 145.873 15.1364C145.608 15.0758 145.313 15.0455 144.987 15.0455C144.222 15.0455 143.68 15.2311 143.362 15.6023C143.051 15.9659 142.896 16.4886 142.896 17.1705V36H138.771ZM153.845 12.7273V36H149.731V12.7273H153.845ZM165.689 36.3409C163.984 36.3409 162.507 35.9659 161.257 35.2159C160.007 34.4659 159.037 33.4167 158.348 32.0682C157.666 30.7197 157.325 29.1439 157.325 27.3409C157.325 25.5379 157.666 23.9583 158.348 22.6023C159.037 21.2462 160.007 20.1932 161.257 19.4432C162.507 18.6932 163.984 18.3182 165.689 18.3182C167.393 18.3182 168.871 18.6932 170.121 19.4432C171.371 20.1932 172.336 21.2462 173.018 22.6023C173.708 23.9583 174.052 25.5379 174.052 27.3409C174.052 29.1439 173.708 30.7197 173.018 32.0682C172.336 33.4167 171.371 34.4659 170.121 35.2159C168.871 35.9659 167.393 36.3409 165.689 36.3409ZM165.711 33.0455C166.636 33.0455 167.408 32.7917 168.03 32.2841C168.651 31.7689 169.113 31.0795 169.416 30.2159C169.727 29.3523 169.882 28.3902 169.882 27.3295C169.882 26.2614 169.727 25.2955 169.416 24.4318C169.113 23.5606 168.651 22.8674 168.03 22.3523C167.408 21.8371 166.636 21.5795 165.711 21.5795C164.765 21.5795 163.977 21.8371 163.348 22.3523C162.727 22.8674 162.261 23.5606 161.95 24.4318C161.647 25.2955 161.496 26.2614 161.496 27.3295C161.496 28.3902 161.647 29.3523 161.95 30.2159C162.261 31.0795 162.727 31.7689 163.348 32.2841C163.977 32.7917 164.765 33.0455 165.711 33.0455ZM180.646 36L175.714 18.5455H179.908L182.976 30.8182H183.135L186.271 18.5455H190.419L193.555 30.75H193.726L196.748 18.5455H200.953L196.01 36H191.726L188.453 24.2045H188.214L184.942 36H180.646Z" fill="#0C111D"/>
</svg>
