<svg width="205" height="47" viewBox="0 0 205 47" fill="none" xmlns="http://www.w3.org/2000/svg">
<g clip-path="url(#clip0_91_89)">
<path d="M1 34.038L1 13.7669L10.8851 19.3978V28.4634L18.7933 33.0245L26.7013 28.4634V19.3978L36.5865 13.7669V34.038L18.7933 44.1735L1 34.038Z" fill="#FFD600"/>
<path fill-rule="evenodd" clip-rule="evenodd" d="M5.94257 16.5824L1 13.7669L18.7932 3.63135L36.5865 13.7669L31.6439 16.5824V31.5041L18.7932 39.1058L5.94256 31.5041L5.94257 16.5824ZM31.1085 16.8874L26.7013 19.3978L26.7013 19.3415L18.7932 14.7804L10.8851 19.3415V19.3978L6.478 16.8874V31.1923L18.7932 38.4772L31.1085 31.1923V16.8874Z" fill="#FFD600"/>
<path d="M68.8024 20.4819H64.5524C64.4312 19.7849 64.2077 19.1675 63.8819 18.6296C63.5562 18.0842 63.1509 17.622 62.666 17.2433C62.1812 16.8645 61.6282 16.5804 61.0069 16.391C60.3933 16.194 59.7304 16.0955 59.0183 16.0955C57.7532 16.0955 56.6319 16.4137 55.6547 17.0501C54.6774 17.6789 53.9122 18.6031 53.3592 19.8228C52.8062 21.0349 52.5297 22.516 52.5297 24.266C52.5297 26.0463 52.8062 27.5463 53.3592 28.766C53.9198 29.9781 54.685 30.8948 55.6547 31.516C56.6319 32.1296 57.7494 32.4364 59.0069 32.4364C59.7039 32.4364 60.3554 32.3455 60.9615 32.1637C61.5751 31.9743 62.1244 31.6978 62.6092 31.3342C63.1016 30.9705 63.5145 30.5236 63.8479 29.9933C64.1888 29.4629 64.4236 28.8569 64.5524 28.1751L68.8024 28.1978C68.6433 29.3039 68.2986 30.3417 67.7683 31.3114C67.2456 32.2811 66.56 33.1372 65.7115 33.8796C64.863 34.6145 63.8706 35.1902 62.7342 35.6069C61.5979 36.016 60.3365 36.2205 58.9501 36.2205C56.9047 36.2205 55.0789 35.747 53.4729 34.8001C51.8668 33.8531 50.6016 32.4857 49.6774 30.6978C48.7532 28.9099 48.291 26.766 48.291 24.266C48.291 21.7584 48.7569 19.6145 49.6888 17.8342C50.6206 16.0463 51.8895 14.6789 53.4956 13.7319C55.1016 12.7849 56.9198 12.3114 58.9501 12.3114C60.2456 12.3114 61.4501 12.4933 62.5638 12.8569C63.6774 13.2205 64.6698 13.7546 65.541 14.4592C66.4122 15.1561 67.1282 16.0122 67.6888 17.0273C68.2569 18.0349 68.6282 19.1864 68.8024 20.4819ZM76.595 12.6296V35.9023H72.4814V12.6296H76.595ZM88.5524 36.2433C86.8024 36.2433 85.291 35.8796 84.0183 35.1523C82.7532 34.4175 81.7797 33.3796 81.0979 32.0387C80.416 30.6902 80.0751 29.1031 80.0751 27.2773C80.0751 25.4819 80.416 23.9061 81.0979 22.5501C81.7872 21.1864 82.7494 20.1258 83.9842 19.3683C85.2191 18.6031 86.6698 18.2205 88.3365 18.2205C89.4122 18.2205 90.4274 18.3948 91.3819 18.7433C92.3441 19.0842 93.1925 19.6145 93.9274 20.3342C94.6698 21.0539 95.2532 21.9705 95.6774 23.0842C96.1016 24.1902 96.3138 25.5084 96.3138 27.0387V28.3001H82.0069V25.5273H92.3706C92.363 24.7395 92.1925 24.0387 91.8592 23.4251C91.5259 22.8039 91.06 22.3152 90.4615 21.9592C89.8706 21.6031 89.1812 21.4251 88.3933 21.4251C87.5524 21.4251 86.8138 21.6296 86.1774 22.0387C85.541 22.4402 85.0448 22.9705 84.6888 23.6296C84.3403 24.2811 84.1622 24.997 84.1547 25.7773V28.1978C84.1547 29.2129 84.3403 30.0842 84.7115 30.8114C85.0827 31.5311 85.6016 32.0842 86.2683 32.4705C86.935 32.8493 87.7153 33.0387 88.6092 33.0387C89.2077 33.0387 89.7494 32.9554 90.2342 32.7887C90.7191 32.6145 91.1395 32.3607 91.4956 32.0273C91.8516 31.694 92.1206 31.2811 92.3024 30.7887L96.1433 31.2205C95.9009 32.2357 95.4388 33.122 94.7569 33.8796C94.0827 34.6296 93.2191 35.2129 92.166 35.6296C91.113 36.0387 89.9085 36.2433 88.5524 36.2433ZM104.817 36.2546C103.711 36.2546 102.714 36.0576 101.828 35.6637C100.949 35.2622 100.252 34.6713 99.7371 33.891C99.2295 33.1107 98.9757 32.1486 98.9757 31.0046C98.9757 30.0198 99.1575 29.2054 99.5211 28.5614C99.8848 27.9175 100.381 27.4023 101.01 27.016C101.639 26.6296 102.347 26.3379 103.135 26.141C103.93 25.9364 104.752 25.7887 105.601 25.6978C106.623 25.5917 107.453 25.497 108.089 25.4137C108.726 25.3228 109.188 25.1864 109.476 25.0046C109.771 24.8152 109.919 24.5236 109.919 24.1296V24.0614C109.919 23.2054 109.665 22.5425 109.158 22.0728C108.65 21.6031 107.919 21.3683 106.964 21.3683C105.957 21.3683 105.158 21.5879 104.567 22.0273C103.983 22.4667 103.589 22.9857 103.385 23.5842L99.5439 23.0387C99.8469 21.9781 100.347 21.0917 101.044 20.3796C101.741 19.6599 102.593 19.122 103.601 18.766C104.608 18.4023 105.722 18.2205 106.942 18.2205C107.783 18.2205 108.62 18.319 109.453 18.516C110.286 18.7129 111.048 19.0387 111.737 19.4933C112.426 19.9402 112.979 20.5501 113.396 21.3228C113.82 22.0955 114.033 23.0614 114.033 24.2205V35.9023H110.078V33.5046H109.942C109.692 33.9895 109.339 34.444 108.885 34.8683C108.438 35.2849 107.873 35.622 107.192 35.8796C106.517 36.1296 105.726 36.2546 104.817 36.2546ZM105.885 33.2319C106.711 33.2319 107.426 33.069 108.033 32.7433C108.639 32.4099 109.104 31.9705 109.43 31.4251C109.764 30.8796 109.93 30.2849 109.93 29.641V27.5842C109.801 27.6902 109.582 27.7887 109.271 27.8796C108.968 27.9705 108.627 28.0501 108.248 28.1183C107.87 28.1864 107.495 28.247 107.123 28.3001C106.752 28.3531 106.43 28.3986 106.158 28.4364C105.544 28.5198 104.995 28.6561 104.51 28.8455C104.025 29.0349 103.642 29.3001 103.362 29.641C103.082 29.9743 102.942 30.4061 102.942 30.9364C102.942 31.694 103.218 32.266 103.771 32.6523C104.324 33.0387 105.029 33.2319 105.885 33.2319ZM122.283 25.6751V35.9023H118.169V18.4478H122.101V21.4137H122.305C122.707 20.4364 123.347 19.6599 124.226 19.0842C125.112 18.5084 126.207 18.2205 127.51 18.2205C128.714 18.2205 129.764 18.4781 130.658 18.9933C131.559 19.5084 132.256 20.2546 132.748 21.2319C133.248 22.2092 133.495 23.3948 133.487 24.7887V35.9023H129.373V25.4251C129.373 24.2584 129.07 23.3455 128.464 22.6864C127.866 22.0273 127.036 21.6978 125.976 21.6978C125.256 21.6978 124.616 21.8569 124.055 22.1751C123.502 22.4857 123.067 22.9364 122.748 23.5273C122.438 24.1183 122.283 24.8342 122.283 25.6751ZM146.51 18.4478V21.6296H136.192V18.4478H146.51ZM138.771 35.9023V16.8001C138.771 15.6258 139.014 14.6486 139.498 13.8683C139.991 13.0879 140.65 12.5046 141.476 12.1183C142.301 11.7319 143.218 11.5387 144.226 11.5387C144.938 11.5387 145.57 11.5955 146.123 11.7092C146.676 11.8228 147.086 11.9251 147.351 12.016L146.533 15.1978C146.358 15.1448 146.139 15.0917 145.873 15.0387C145.608 14.9781 145.313 14.9478 144.987 14.9478C144.222 14.9478 143.68 15.1334 143.362 15.5046C143.051 15.8683 142.896 16.391 142.896 17.0728V35.9023H138.771ZM153.845 12.6296V35.9023H149.731V12.6296H153.845ZM165.689 36.2433C163.984 36.2433 162.507 35.8683 161.257 35.1183C160.007 34.3683 159.037 33.319 158.348 31.9705C157.666 30.622 157.325 29.0463 157.325 27.2433C157.325 25.4402 157.666 23.8607 158.348 22.5046C159.037 21.1486 160.007 20.0955 161.257 19.3455C162.507 18.5955 163.984 18.2205 165.689 18.2205C167.393 18.2205 168.871 18.5955 170.121 19.3455C171.371 20.0955 172.336 21.1486 173.018 22.5046C173.708 23.8607 174.052 25.4402 174.052 27.2433C174.052 29.0463 173.708 30.622 173.018 31.9705C172.336 33.319 171.371 34.3683 170.121 35.1183C168.871 35.8683 167.393 36.2433 165.689 36.2433ZM165.711 32.9478C166.636 32.9478 167.408 32.694 168.03 32.1864C168.651 31.6713 169.113 30.9819 169.416 30.1183C169.727 29.2546 169.882 28.2925 169.882 27.2319C169.882 26.1637 169.727 25.1978 169.416 24.3342C169.113 23.4629 168.651 22.7698 168.03 22.2546C167.408 21.7395 166.636 21.4819 165.711 21.4819C164.765 21.4819 163.977 21.7395 163.348 22.2546C162.727 22.7698 162.261 23.4629 161.95 24.3342C161.647 25.1978 161.496 26.1637 161.496 27.2319C161.496 28.2925 161.647 29.2546 161.95 30.1183C162.261 30.9819 162.727 31.6713 163.348 32.1864C163.977 32.694 164.765 32.9478 165.711 32.9478ZM180.646 35.9023L175.714 18.4478H179.908L182.976 30.7205H183.135L186.271 18.4478H190.419L193.555 30.6523H193.726L196.748 18.4478H200.953L196.01 35.9023H191.726L188.453 24.1069H188.214L184.942 35.9023H180.646Z" fill="white"/>
</g>
<defs>
<clipPath id="clip0_91_89">
<rect width="205" height="46" fill="white" transform="translate(0 0.902344)"/>
</clipPath>
</defs>
</svg>
