<svg width="79" height="60" viewBox="0 0 79 60" fill="none" xmlns="http://www.w3.org/2000/svg">
<path d="M71.9412 4.85294C76.3529 9.70588 79 15 79 23.8235C79 39.2647 67.9706 52.9412 52.5294 60L48.5588 54.2647C63.1176 46.3235 66.2059 36.1765 67.0882 29.5588C64.8824 30.8824 61.7941 31.3235 58.7059 30.8824C50.7647 30 44.5882 23.8235 44.5882 15.4412C44.5882 11.4706 46.3529 7.5 49 4.41177C52.0882 1.32353 55.6176 0 60.0294 0C64.8824 0 69.2941 2.20588 71.9412 4.85294ZM27.8235 4.85294C32.2353 9.70588 34.8823 15 34.8823 23.8235C34.8823 39.2647 23.8529 52.9412 8.41176 60L4.44117 54.2647C19 46.3235 22.0882 36.1765 22.9706 29.5588C20.7647 30.8824 17.6765 31.3235 14.5882 30.8824C6.64705 30 0.470581 23.3824 0.470581 15.4412C0.470581 11.4706 2.23529 7.5 4.88235 4.41177C7.97058 1.32353 11.5 0 15.9118 0C20.7647 0 25.1765 2.20588 27.8235 4.85294Z" fill="#FFD600"/>
</svg>
