<svg width="73" height="80" viewBox="0 0 73 80" fill="none" xmlns="http://www.w3.org/2000/svg">
<g clip-path="url(#clip0_153_29)">
<path fill-rule="evenodd" clip-rule="evenodd" d="M63.4206 6.5321C64.4668 9.09819 66.0424 11.1784 67.966 12.492C66.0424 13.8066 64.4668 15.8849 63.4206 18.453C62.3752 15.8849 60.7999 13.8066 58.8752 12.492C60.7999 11.1765 62.3755 9.09819 63.4206 6.5321ZM55.7226 13.6381C59.0191 14.7018 61.5974 18.8232 62.1403 23.8935C62.2929 25.3352 64.5472 25.3352 64.7023 23.8935C65.2452 18.8232 67.8235 14.7018 71.12 13.6381C72.2761 13.2655 72.275 11.7182 71.12 11.3451C67.8238 10.2823 65.2452 6.16184 64.7023 1.09059C64.6351 0.471193 64.0818 0 63.4209 0C62.7599 0 62.2052 0.471193 62.1386 1.09059C61.5977 6.16089 59.0191 10.2823 55.7226 11.3451C54.5679 11.7182 54.5665 13.2657 55.7226 13.6381ZM42.2781 10.2869C42.8084 11.2192 43.475 12.0161 44.2469 12.6318C43.475 13.2493 42.8084 14.0454 42.2781 14.9785C41.747 14.0454 41.0794 13.2493 40.3083 12.6318C41.0794 12.0161 41.7473 11.219 42.2781 10.2869ZM37.3492 13.787C39.2168 14.3443 40.6831 16.5457 40.9967 19.2656C41.1637 20.6945 43.3929 20.6964 43.5568 19.2656C43.8712 16.5458 45.3395 14.3443 47.2071 13.7889C48.4011 13.4329 48.3972 11.8304 47.2071 11.4756C45.3395 10.9202 43.8712 8.71861 43.5568 5.99881C43.3929 4.56825 41.1637 4.57016 40.9967 5.99881C40.6831 8.71861 39.2168 10.9202 37.3492 11.4756C36.1538 11.8319 36.156 13.4346 37.3492 13.787ZM32.9368 60.376C32.1825 58.8939 31.1498 57.6598 29.9207 56.784C31.1501 55.9065 32.1825 54.6733 32.9368 53.1911C33.6921 54.6733 34.7237 55.9065 35.9551 56.784C34.7237 57.6598 33.6921 58.8939 32.9368 60.376ZM39.0861 55.6251C36.5874 54.901 34.6293 52.084 34.2173 48.6174C34.0468 47.1913 31.8257 47.191 31.6573 48.6174C31.2454 52.0843 29.2884 54.901 26.7886 55.6251C25.5819 55.9745 25.5811 57.5929 26.7886 57.9423C29.2884 58.6661 31.2454 61.4823 31.6573 64.95C31.8257 66.3761 34.0468 66.3759 34.2173 64.95C34.6293 61.4823 36.5874 58.6661 39.0861 57.9423C40.2922 57.5929 40.2917 55.974 39.0861 55.6251ZM18.0055 48.9033V61.9423C18.0055 62.6116 17.4303 63.1541 16.7173 63.1541C16.0073 63.1541 15.4301 62.6116 15.4301 61.9423V48.9033C15.4301 48.2341 16.0073 47.6915 16.7173 47.6915C17.4303 47.6915 18.0055 48.2341 18.0055 48.9033ZM18.0055 66.9763V70.4721C18.0055 71.1414 17.4303 71.6847 16.7173 71.6847C16.0073 71.6847 15.4301 71.1414 15.4301 70.4721V66.9763C15.4301 66.3081 16.0073 65.7648 16.7173 65.7648C17.4303 65.7648 18.0055 66.3081 18.0055 66.9763ZM3.24161 73.4817V76.9764C3.24161 77.6446 2.66539 78.188 1.95441 78.188C1.2414 78.188 0.666992 77.6446 0.666992 76.9764V73.4817C0.666992 72.8114 1.2414 72.2699 1.95441 72.2699C2.66518 72.2699 3.24161 72.8114 3.24161 73.4817ZM10.575 68.1199V71.6136C10.575 72.2828 9.99777 72.8254 9.28678 72.8254C8.57681 72.8254 7.99955 72.2828 7.99955 71.6136V68.1199C7.99955 67.4485 8.57681 66.907 9.28678 66.907C9.99757 66.907 10.575 67.4485 10.575 68.1199ZM67.3219 37.6843C65.6524 39.9394 63.406 41.2716 61.0081 41.2216C47.6994 41.2216 34.3907 41.2216 21.0817 41.2216C24.3889 38.4078 26.118 33.8507 26.2929 29.3785H70.0755C69.937 32.5315 68.9723 35.4569 67.3219 37.6843ZM58.5037 55.3595L49.2899 64.0318C49.0491 64.2596 48.9134 64.5686 48.9134 64.8889V77.5753H46.2747V63.3586L55.4893 54.6862C55.7313 54.4577 55.8673 54.1503 55.8673 53.8292V43.6458H58.5037V55.3595ZM14.2932 41.202C16.8211 41.379 19.1695 40.1047 20.9617 37.684C22.8347 35.1543 23.8042 31.7609 23.729 28.1905C23.7146 27.5107 24.2959 26.9536 25.0152 26.9536H49.6558C49.7275 26.0669 49.8573 25.1939 50.0481 24.3421H6.32753C5.2831 28.4074 5.79257 33.0981 7.8636 36.6037C8.77326 35.8186 9.76062 35.0956 10.8198 34.4475C11.4159 34.083 12.2143 34.243 12.6007 34.8041C12.9882 35.3659 12.818 36.1156 12.2232 36.4815C11.1846 37.1163 10.224 37.8311 9.34768 38.6144C9.99957 39.3188 10.7088 39.891 11.4571 40.3158C12.5044 39.3291 13.7574 38.5125 15.1764 37.934C15.8282 37.6674 16.5866 37.9499 16.8709 38.5644C17.1521 39.1781 16.853 39.891 16.2011 40.1577C15.5126 40.4391 14.8735 40.792 14.2932 41.202ZM72.6628 28.1416C72.7451 32.2267 71.6205 36.1185 69.4354 39.071C67.2294 42.0512 64.2878 43.646 61.0792 43.646V55.861C61.0792 56.1824 60.9435 56.4914 60.7015 56.7194L51.4889 65.3915V77.7809C51.4889 79.0038 50.4297 80 49.1298 80H46.0586C44.7595 80 43.6992 79.0038 43.6992 77.7809V62.8571C43.6992 62.5357 43.8352 62.2264 44.0772 61.9987L53.2918 53.3265V43.646H14.7691C13.8859 43.646 13.0216 43.5191 12.1847 43.2738C11.1571 44.6901 10.5748 46.3815 10.5748 48.16V63.0838C10.5748 63.7522 9.99754 64.2956 9.28658 64.2956C8.57661 64.2956 7.99935 63.7522 7.99935 63.0838V48.16C7.99935 46.0149 8.66018 43.969 9.8363 42.225C9.03974 41.7372 8.28646 41.1287 7.58925 40.405C4.80805 43.6421 3.24161 47.6968 3.24161 51.97V68.4455C3.24161 69.1148 2.66539 69.6582 1.95441 69.6582C1.2414 69.6582 0.666992 69.1148 0.666992 68.4455V51.97C0.666992 46.9212 2.59457 42.1461 6.00401 38.4088C3.10706 34.0089 2.47722 27.908 4.10901 22.7824C4.27227 22.2704 4.77385 21.9177 5.3422 21.9177H51.7013C52.5648 21.9177 53.1839 22.7018 52.9366 23.4775C52.5826 24.5895 52.3496 25.755 52.2394 26.9536H71.3757C72.0777 26.9538 72.649 27.4826 72.6628 28.1416Z" fill="#ffffff"/>
</g>
<defs>
<clipPath id="clip0_153_29">
<rect width="72" height="80" fill="white" transform="translate(0.666992)"/>
</clipPath>
</defs>
</svg>
