<svg width="81" height="80" viewBox="0 0 81 80" fill="none" xmlns="http://www.w3.org/2000/svg">
<path d="M76.333 38.6667H36.2022L32.5722 3.57575C32.4634 2.52423 31.9414 1.559 31.1208 0.8924C30.3004 0.225781 29.2487 -0.0876057 28.1972 0.0211706C27.1457 0.129971 26.1805 0.651997 25.5139 1.47245C24.8474 2.29291 24.5338 3.34457 24.6426 4.39609L24.7398 5.33343H1.66634C1.31273 5.33343 0.973577 5.4739 0.723526 5.72395C0.473476 5.974 0.333008 6.31313 0.333008 6.66677V12.0001C0.333008 12.3537 0.473476 12.6929 0.723526 12.9429C0.973577 13.1929 1.31273 13.3334 1.66634 13.3334V42.6667C1.66757 43.7272 2.0894 44.7441 2.83927 45.4938C3.58916 46.2438 4.60586 46.6655 5.66634 46.6667V60C5.67035 63.5352 7.0764 66.9241 9.57601 69.4236C12.0756 71.9234 15.4647 73.3293 18.9997 73.3333H27.5807C26.98 73.8489 26.4981 74.4882 26.1677 75.2074C25.8372 75.9265 25.6661 76.7087 25.6663 77.5002V78.6667C25.6663 79.0203 25.8069 79.3595 26.057 79.6096C26.3068 79.8597 26.646 80 26.9997 80H64.333C64.6867 80 65.0259 79.8597 65.2757 79.6096C65.5258 79.3595 65.6663 79.0203 65.6663 78.6667V77.5002C65.6649 76.224 65.2202 74.9879 64.4086 74.003C63.597 73.0181 62.4687 72.3456 61.2164 72.1L59.1907 64.5383C62.4533 63.7533 65.521 62.3095 68.2055 60.2963C72.5115 57.0695 76.1055 52.2155 78.8876 45.8688C78.9129 45.81 78.9338 45.7493 78.9506 45.6877C79.5674 45.1541 80.0061 44.4449 80.2083 43.6549C80.4105 42.8648 80.3662 42.0319 80.0813 41.2677C79.7964 40.5037 79.2846 39.845 78.6147 39.3799C77.9446 38.9151 77.1484 38.6662 76.333 38.6667ZM77.6663 42.6667C77.6659 43.0203 77.5253 43.3591 77.2755 43.6091C77.0254 43.8592 76.6864 43.9998 76.333 44H30.9997V41.3333H76.333C76.6864 41.3338 77.0254 41.4744 77.2755 41.7245C77.5253 41.9743 77.6659 42.3132 77.6663 42.6667ZM25.6663 14.2909L28.333 40.069V44H25.4369C25.5891 43.5719 25.6666 43.1211 25.6663 42.6667V14.2909ZM27.6278 3.10242C27.7987 2.91295 28.0208 2.77711 28.2673 2.7113C28.5139 2.64553 28.7741 2.65261 29.0166 2.73174C29.2591 2.81086 29.4736 2.95863 29.6339 3.15712C29.7941 3.35562 29.8934 3.59633 29.9197 3.8501L33.5213 38.6667H30.8688L27.2953 4.1216C27.2753 3.93785 27.2945 3.75197 27.3519 3.57625C27.4093 3.40056 27.5034 3.23904 27.6278 3.10242ZM2.99967 8.0001H24.333V10.6668H2.99967V8.0001ZM4.33301 42.6667V13.3334H22.9997V42.6667C22.9992 43.0203 22.8586 43.3591 22.6088 43.6091C22.3587 43.8592 22.0198 43.9998 21.6663 44H5.66634C5.31285 43.9998 4.97393 43.8592 4.72398 43.6091C4.474 43.3591 4.33341 43.0203 4.33301 42.6667ZM16.333 51.4707C17.6448 54.4337 19.8997 57.2068 22.9859 59.5885C24.5454 60.7865 26.2257 61.8181 27.9997 62.6667H20.333C19.2725 62.6655 18.2558 62.2438 17.5059 61.4938C16.7561 60.7441 16.3342 59.7272 16.333 58.6667V51.4707ZM8.33301 60V46.6667H13.6663V58.6667C13.6683 60.4343 14.3713 62.1288 15.6212 63.3787C16.871 64.6284 18.5655 65.3314 20.333 65.3333H31.9289L30.4998 70.6667H18.9997C16.1717 70.6636 13.4604 69.5388 11.4607 67.539C9.46102 65.5393 8.33618 62.8281 8.33301 60ZM58.8783 73.6785C58.9544 73.962 59.1217 74.2125 59.3545 74.3912C59.5875 74.57 59.8727 74.6667 60.1664 74.6667C60.8886 74.6676 61.5834 74.944 62.1091 75.4397C62.6346 75.9351 62.9513 76.6125 62.9949 77.3333H28.3377C28.3814 76.6125 28.698 75.9351 29.2236 75.4397C29.7493 74.944 30.4441 74.6676 31.1663 74.6667C31.4598 74.6667 31.7452 74.57 31.9782 74.3912C32.2109 74.2125 32.3783 73.962 32.4544 73.6785L34.7996 64.924C36.1839 65.1906 37.59 65.3279 38.9997 65.3333H52.333C53.7488 65.3357 55.163 65.2381 56.5651 65.0415L58.8783 73.6785ZM52.333 62.6667H38.9997C34.2039 62.6667 28.8263 60.7268 24.6148 57.477C20.5902 54.3718 18.1897 50.5771 17.7427 46.6667H75.5807C70.3258 57.4272 62.7036 62.6667 52.333 62.6667Z" fill="#0C111D"/>
<path d="M13.6665 24C14.5907 23.9988 15.4861 23.6781 16.201 23.0922C16.9158 22.5062 17.4061 21.6913 17.5886 20.7851L18.4035 21.1925C18.7194 21.3473 19.0837 21.3713 19.417 21.2587C19.7503 21.1461 20.0257 20.9064 20.1831 20.5917C20.3404 20.277 20.367 19.9129 20.2571 19.5787C20.1471 19.2445 19.9096 18.9673 19.5962 18.8075C19.5962 18.8075 16.7686 17.4038 16.6861 17.3811C16.2474 16.8752 15.6886 16.4876 15.061 16.2538C14.4335 16.0201 13.7573 15.9477 13.0945 16.0433C12.4316 16.1388 11.8034 16.3993 11.2675 16.8009C10.7316 17.2024 10.305 17.7321 10.0271 18.3414C9.74911 18.9506 9.6286 19.6199 9.67663 20.2879C9.72465 20.9559 9.93964 21.601 10.3019 22.1644C10.6642 22.7276 11.1621 23.1908 11.7499 23.5115C12.3378 23.8322 12.9968 24.0002 13.6665 24ZM13.6665 18.6666C13.9302 18.6666 14.188 18.7448 14.4072 18.8914C14.6265 19.0379 14.7974 19.2461 14.8983 19.4897C14.9992 19.7334 15.0256 20.0015 14.9742 20.2601C14.9228 20.5188 14.7958 20.7563 14.6093 20.9428C14.4228 21.1292 14.1852 21.2563 13.9266 21.3077C13.668 21.3592 13.3999 21.3326 13.1562 21.2319C12.9126 21.1309 12.7044 20.96 12.5579 20.7407C12.4113 20.5215 12.3331 20.2637 12.3331 20C12.3336 19.6465 12.4741 19.3076 12.7241 19.0576C12.9741 18.8077 13.313 18.6671 13.6665 18.6666Z" fill="#0C111D"/>
<path d="M52.6561 13.2934C52.9446 13.2212 53.2008 13.0547 53.3838 12.8204C53.5668 12.586 53.6661 12.2972 53.6661 11.9999C53.6661 11.7025 53.5668 11.4137 53.3838 11.1794C53.2008 10.945 52.9446 10.7785 52.6561 10.7064C51.2789 10.3636 50.021 9.65225 49.0173 8.64866C48.0137 7.64506 47.3024 6.38713 46.9596 5.00985C46.8876 4.7214 46.7212 4.46535 46.4867 4.28236C46.2523 4.09939 45.9636 4 45.6661 4C45.3689 4 45.0801 4.09939 44.8457 4.28236C44.6113 4.46535 44.4449 4.7214 44.3726 5.00985C44.0298 6.38713 43.3185 7.64506 42.3149 8.64866C41.3115 9.65225 40.0535 10.3636 38.6761 10.7064C38.3876 10.7785 38.1316 10.945 37.9487 11.1794C37.7657 11.4137 37.6663 11.7025 37.6663 11.9999C37.6663 12.2972 37.7657 12.586 37.9487 12.8204C38.1316 13.0547 38.3876 13.2212 38.6761 13.2934C40.0535 13.6361 41.3115 14.3475 42.3149 15.3511C43.3185 16.3547 44.0298 17.6126 44.3726 18.9899C44.4449 19.2783 44.6113 19.5344 44.8457 19.7174C45.0801 19.9003 45.3689 19.9997 45.6661 19.9997C45.9636 19.9997 46.2523 19.9003 46.4867 19.7174C46.7212 19.5344 46.8876 19.2783 46.9596 18.9899C47.3024 17.6126 48.0137 16.3547 49.0173 15.3511C50.021 14.3475 51.2789 13.6361 52.6561 13.2934ZM45.6661 15.303C44.8279 13.9673 43.6987 12.8381 42.363 11.9999C43.6987 11.1616 44.8279 10.0325 45.6661 8.6967C46.5045 10.0325 47.6335 11.1616 48.9695 11.9999C47.6335 12.8381 46.5045 13.9673 45.6661 15.303Z" fill="#0C111D"/>
<path d="M60.7545 28.0687C59.7101 27.7179 58.7612 27.1298 57.9823 26.3509C57.2032 25.5718 56.6153 24.6229 56.2645 23.5786C56.1761 23.3131 56.0061 23.0822 55.7793 22.9184C55.5522 22.7549 55.2794 22.6667 54.9994 22.6667C54.7195 22.6667 54.4467 22.7549 54.2198 22.9184C53.9927 23.0822 53.823 23.3131 53.7344 23.5786C53.3836 24.6229 52.7957 25.5718 52.0166 26.3509C51.2377 27.1298 50.2888 27.7179 49.2444 28.0687C48.9789 28.1574 48.7483 28.3271 48.5845 28.5542C48.4209 28.781 48.333 29.0539 48.333 29.3336C48.333 29.6135 48.4209 29.8861 48.5845 30.1132C48.7483 30.34 48.9789 30.51 49.2444 30.5984C50.2888 30.9495 51.2377 31.5373 52.0166 32.3164C52.7957 33.0954 53.3836 34.0442 53.7344 35.0886C53.823 35.3541 53.9927 35.5852 54.2198 35.7487C54.4467 35.9125 54.7195 36.0007 54.9994 36.0007C55.2794 36.0007 55.5522 35.9125 55.7793 35.7487C56.0061 35.5852 56.1761 35.3541 56.2645 35.0886C56.6153 34.0442 57.2032 33.0954 57.9823 32.3164C58.7612 31.5373 59.7101 30.9495 60.7545 30.5984C61.0199 30.51 61.2508 30.34 61.4144 30.1132C61.5779 29.8861 61.6659 29.6135 61.6659 29.3336C61.6659 29.0539 61.5779 28.781 61.4144 28.5542C61.2508 28.3271 61.0199 28.1574 60.7545 28.0687ZM54.9994 31.739C54.3428 30.8039 53.5291 29.9902 52.594 29.3336C53.5291 28.6772 54.3428 27.8632 54.9994 26.9284C55.656 27.8632 56.47 28.6772 57.4049 29.3336C56.47 29.9902 55.656 30.8039 54.9994 31.739Z" fill="#0C111D"/>
<path d="M73.6663 18.6667H72.333V17.3333C72.333 16.9797 72.1924 16.6406 71.9424 16.3905C71.6925 16.1405 71.3533 16 70.9997 16C70.646 16 70.3068 16.1405 70.057 16.3905C69.8069 16.6406 69.6663 16.9797 69.6663 17.3333V18.6667H68.333C67.9793 18.6667 67.6402 18.8071 67.3903 19.0572C67.1402 19.3072 66.9997 19.6464 66.9997 20C66.9997 20.3536 67.1402 20.6928 67.3903 20.9428C67.6402 21.1928 67.9793 21.3333 68.333 21.3333H69.6663V22.6667C69.6663 23.0203 69.8069 23.3595 70.057 23.6094C70.3068 23.8594 70.646 24 70.9997 24C71.3533 24 71.6925 23.8594 71.9424 23.6094C72.1924 23.3595 72.333 23.0203 72.333 22.6667V21.3333H73.6663C74.02 21.3333 74.3592 21.1928 74.609 20.9428C74.8591 20.6928 74.9997 20.3536 74.9997 20C74.9997 19.6464 74.8591 19.3072 74.609 19.0572C74.3592 18.8071 74.02 18.6667 73.6663 18.6667Z" fill="#0C111D"/>
</svg>
