<svg width="80" height="80" viewBox="0 0 80 80" fill="none" xmlns="http://www.w3.org/2000/svg">
<path d="M30.6697 18.666H28.0032V21.3324H30.6697V18.666Z" fill="#ffffff"/>
<path d="M35.4436 65.4491C34.0131 53.2289 30.4027 38.6633 21.3368 38.6633C12.2709 38.6633 8.66054 53.2289 7.22999 65.4491C6.77052 69.3132 9.53062 72.8184 13.3948 73.2778C13.6699 73.3105 13.9469 73.3269 14.2241 73.3271H28.4495C32.3409 73.3256 35.4943 70.1698 35.493 66.2785C35.4928 66.0012 35.4763 65.7242 35.4436 65.4491ZM21.3368 41.3298C26.2777 41.3298 29.2202 48.2547 30.9359 55.182L30.4027 55.7153C28.3188 57.7046 25.0394 57.7046 22.9554 55.7153C19.8582 52.6175 14.8363 52.6171 11.7388 55.7142L11.5843 55.8687C13.2575 48.7225 16.2317 41.3298 21.3368 41.3298ZM31.7146 69.1941C30.8897 70.1324 29.6987 70.6674 28.4495 70.6607H14.2241C12.9748 70.6674 11.7839 70.1324 10.959 69.1941C10.1234 68.2562 9.72761 67.0064 9.87109 65.7585C10.0378 64.3386 10.2791 62.5508 10.615 60.5962L13.6068 57.6044C15.6908 55.6151 18.9702 55.6151 21.0541 57.6044C23.9048 60.4582 28.4446 60.7147 31.5986 58.2005C32.1771 61.0776 32.5558 63.7747 32.7892 65.7585C32.9361 67.0044 32.5454 68.254 31.7146 69.1941Z" fill="#ffffff"/>
<path d="M46.8522 0.590712C44.59 0.197579 42.2983 -7.12902e-05 40.0021 9.53471e-05C35.1772 -0.00473757 30.3916 0.868521 25.8792 2.5772C24.3651 0.0604236 21.0972 -0.752174 18.5805 0.762032C16.9775 1.72645 15.9993 3.4623 16.0041 5.33298V6.66619H14.6709C13.9346 6.66619 13.3377 7.26316 13.3377 7.99942V12.2657C7.42849 13.4835 3.18836 18.686 3.18784 24.7194C3.17651 28.8862 4.83288 32.8844 7.78746 35.8224L9.36467 37.393C2.05061 46.0398 -1.21061 57.4048 0.405422 68.6143L0.432086 68.7996C1.37467 75.2084 6.85987 79.966 13.3377 79.9933H29.3362C30.6321 79.9909 31.92 79.7917 33.1559 79.4028C54.9194 83.1849 75.6279 68.6081 79.4101 46.8448C83.1922 25.0815 68.6155 4.37272 46.8522 0.590712ZM18.6705 5.33298C18.6705 3.86027 19.8643 2.66654 21.337 2.66654C22.8096 2.66654 24.0035 3.86027 24.0035 5.33298V6.66619H18.6705V5.33298ZM16.0041 9.33263H26.67V11.9991H16.0041V9.33263ZM29.3362 77.3268H13.3377C8.18294 77.3048 3.81897 73.5172 3.07186 68.4169L3.04388 68.2302C1.47817 57.3673 4.82522 46.3707 12.1776 38.2222C12.6519 37.6953 12.6309 36.8892 12.1296 36.3876L9.67248 33.9305C7.21985 31.4911 5.84495 28.172 5.85413 24.7128C5.85629 23.56 6.05695 22.4161 6.44741 21.3316H25.3365V18.6652H7.89011C8.16776 18.2924 8.47057 17.9391 8.79671 17.6079C10.6765 15.7179 13.2343 14.6585 15.9001 14.6655H26.7738C32.322 14.6655 36.8198 19.1631 36.8198 24.7114C36.8289 28.1706 35.4539 31.4911 33.0014 33.9305L30.5443 36.3876C30.0429 36.8892 30.0218 37.6953 30.4963 38.2222C37.8461 46.368 41.1935 57.3599 39.6314 68.2196L39.6007 68.4196C38.8531 73.5185 34.4898 77.3048 29.3362 77.3268ZM53.3588 74.8564C49.0951 76.4899 44.5678 77.3273 40.0021 77.3268C39.1129 77.3268 38.2248 77.2708 37.3356 77.2082C39.9938 75.1471 41.7507 72.137 42.2378 68.809L42.2672 68.6076C42.4901 67.0244 42.6174 65.4293 42.6485 63.8307C53.2277 62.704 61.7831 54.7106 63.6253 44.2323L61.0002 43.7658C59.3774 52.9818 51.9085 60.0466 42.6165 61.1549C42.2254 52.4233 38.9524 44.0674 33.3092 37.393L34.8865 35.8158C37.8412 32.8777 39.4973 28.8796 39.486 24.7128C39.4907 22.6368 38.9837 20.5919 38.0103 18.7585C38.6688 18.6972 39.3356 18.6652 40.0021 18.6652C50.3377 18.6473 59.1936 26.0544 61.0031 36.2305L63.628 35.7638C61.5925 24.3149 51.6302 15.9809 40.0021 15.9987C38.7599 16.0066 37.5205 16.1101 36.2944 16.308C36.1197 16.1107 35.9504 15.9081 35.761 15.7228C34.0069 13.9624 31.7718 12.7599 29.3362 12.2657V7.99942C29.3362 7.26316 28.7393 6.66619 28.0032 6.66619H26.67V5.33298C26.67 5.26631 26.6526 5.19966 26.65 5.13699C45.9024 -2.23855 67.4885 7.38981 74.8641 26.6423C82.2394 45.8947 72.6112 67.4808 53.3588 74.8564Z" fill="#ffffff"/>
<path d="M63.9638 38.5853L61.2973 38.7427C61.3213 39.1585 61.3333 39.5759 61.3333 39.9972C61.3333 40.4184 61.3213 40.8358 61.2973 41.2518L63.9638 41.4092C63.9904 40.9411 64.0051 40.4757 64.0051 39.9972C64.0051 39.5185 63.9904 39.0532 63.9638 38.5853Z" fill="#ffffff"/>
<path d="M77.3321 2.66752V0.00108524H74.6656V2.66752H71.9992V5.33396H74.6656V8.0004H77.3321V5.33396H79.9986V2.66752H77.3321Z" fill="#ffffff"/>
<path d="M77.3321 74.6608V71.9944H74.6656V74.6608H71.9992V77.3273H74.6656V79.9938H77.3321V77.3273H79.9986V74.6608H77.3321Z" fill="#ffffff"/>
<path d="M5.3383 2.66752V0.00108524H2.67186V2.66752H0.00542644V5.33396H2.67186V8.0004H5.3383V5.33396H8.00475V2.66752H5.3383Z" fill="#ffffff"/>
</svg>
