<svg width="81" height="80" viewBox="0 0 81 80" fill="none" xmlns="http://www.w3.org/2000/svg">
<g clip-path="url(#clip0_153_16)">
<path d="M25.8205 45.6377C24.2589 44.0766 21.7276 44.0766 20.1661 45.6377C19.5114 46.2975 19.1098 47.1666 19.0317 48.093C18.5767 48.041 18.1194 48.013 17.6615 48.009C11.9187 48.0015 6.81831 51.6773 5.00938 57.1278C3.20042 62.5782 5.09064 68.5745 9.69837 72.0023H4.33188C2.12336 72.0023 0.333008 73.7924 0.333008 76.0011C0.333008 78.2096 2.12336 80 4.33188 80H76.3116C78.5201 80 80.3104 78.2096 80.3104 76.0011C80.3104 73.7924 78.5201 72.0023 76.3116 72.0023H71.2463L74.7813 53.1556C76.6824 52.5928 77.8816 50.7194 77.5963 48.7575C77.3111 46.7956 75.6282 45.3411 73.6457 45.3431C73.643 42.9122 71.9995 40.7899 69.6468 40.1792C69.6468 40.1232 69.6468 40.0673 69.6468 40.0113C69.6437 37.1125 67.7675 34.5482 65.0057 33.6682C62.2438 32.788 59.2299 33.7939 57.5502 36.1564C57.1461 36.0611 56.7324 36.0128 56.3172 36.0124C53.8346 36.0142 51.6805 37.7264 51.1187 40.1446C48.7005 40.7064 46.9883 42.8605 46.9865 45.3431C45.0031 45.3384 43.3175 46.792 43.031 48.7548C42.7442 50.7176 43.9436 52.5926 45.8455 53.1556L49.3858 72.0023H40.3217C40.3173 67.5871 36.7392 64.0087 32.324 64.0045H30.7111C30.9997 62.6791 31.0659 61.3153 30.9071 59.9683C32.4484 59.8297 33.7698 58.8106 34.2959 57.3553C34.8219 55.8999 34.4574 54.2715 33.361 53.1796L32.4186 52.2372L77.8058 6.84985C78.83 5.84258 79.235 4.36344 78.8671 2.97493C78.4994 1.58641 77.415 0.501847 76.0265 0.133679C74.6383 -0.23449 73.1589 0.170301 72.1514 1.19412L26.7642 46.5814L25.8205 45.6377ZM52.3183 42.6772C53.0546 42.6772 53.6513 42.0802 53.6513 41.3442C53.6509 40.4147 54.1343 39.5521 54.9276 39.0678C55.7207 38.5832 56.7089 38.5468 57.5355 38.9716C57.8597 39.1375 58.2373 39.164 58.5812 39.0442C58.9254 38.9247 59.2053 38.6697 59.3564 38.3384C60.1466 36.64 62.0094 35.7178 63.8391 36.1193C65.6686 36.5207 66.9742 38.138 66.9809 40.0113C66.9789 40.3561 66.934 40.6995 66.8476 41.0337C66.7398 41.4638 66.8531 41.9194 67.1499 42.2491C67.4467 42.5788 67.888 42.7392 68.3272 42.6772C69.7943 42.6845 70.9797 43.8757 70.9797 45.3431H49.6524C49.6524 43.8706 50.8461 42.6772 52.3183 42.6772ZM46.9865 48.009H73.6457C74.3819 48.009 74.9786 48.6057 74.9786 49.342C74.9786 50.078 74.3819 50.6749 73.6457 50.6749H46.9865C46.2503 50.6749 45.6536 50.078 45.6536 49.342C45.6536 48.6057 46.2503 48.009 46.9865 48.009ZM48.5861 53.3409H72.0461L68.5404 72.0023H52.0917L48.5861 53.3409ZM76.3116 74.6682C77.0478 74.6682 77.6445 75.2649 77.6445 76.0011C77.6445 76.7371 77.0478 77.3341 76.3116 77.3341H4.33188C3.59571 77.3341 2.99892 76.7371 2.99892 76.0011C2.99892 75.2649 3.59571 74.6682 4.33188 74.6682H76.3116ZM25.6592 64.0045C24.923 64.0045 24.3262 64.6012 24.3262 65.3375C24.3262 66.0735 24.923 66.6704 25.6592 66.6704H32.324C35.2687 66.6704 37.6558 69.0575 37.6558 72.0023H17.6615C11.7721 72.0023 6.99779 67.2278 6.99779 61.3386C6.99779 55.4491 11.7721 50.6749 17.6615 50.6749C18.4015 50.6823 19.1389 50.7649 19.8622 50.9215C19.9556 51.0517 20.0571 51.1759 20.1661 51.2934L27.7053 58.834C27.8235 58.9428 27.9481 59.0448 28.0785 59.1392C28.2354 59.8619 28.318 60.5988 28.3251 61.3386C28.3262 62.2379 28.212 63.1339 27.9852 64.0045H25.6592ZM31.4762 56.9492C31.2263 57.1993 30.8868 57.3399 30.5332 57.3399C30.1795 57.3399 29.84 57.1993 29.5901 56.9492L22.0509 49.4086C21.5457 48.8854 21.553 48.0541 22.0671 47.54C22.5812 47.0257 23.4127 47.0186 23.9357 47.5238L31.4749 55.063C31.9952 55.5836 31.9965 56.4286 31.4762 56.9492ZM74.0362 3.07892C74.3708 2.73242 74.8664 2.59343 75.3325 2.71542C75.7986 2.83741 76.1625 3.20137 76.2845 3.66742C76.4064 4.13346 76.2676 4.62906 75.921 4.96372L30.5338 50.351L30.01 49.8285L28.649 48.4662L74.0362 3.07892Z" fill="#ffffff"/>
<path d="M56.317 56.0063H53.6511C52.9148 56.0063 52.3181 56.603 52.3181 57.3393C52.3181 58.0755 52.9148 58.6722 53.6511 58.6722H56.317C57.0532 58.6722 57.65 58.0755 57.65 57.3393C57.65 56.603 57.0532 56.0063 56.317 56.0063Z" fill="#ffffff"/>
<path d="M65.6479 56.0063H61.649C60.9128 56.0063 60.3161 56.603 60.3161 57.3393C60.3161 58.0755 60.9128 58.6722 61.649 58.6722H65.6479C66.3842 58.6722 66.9809 58.0755 66.9809 57.3393C66.9809 56.603 66.3842 56.0063 65.6479 56.0063Z" fill="#ffffff"/>
<path d="M74.9786 37.3449C77.1873 37.3449 78.9775 35.5545 78.9775 33.346C78.9775 31.1376 77.1873 29.3472 74.9786 29.3472C72.7701 29.3472 70.9797 31.1376 70.9797 33.346C70.9797 35.5545 72.7701 37.3449 74.9786 37.3449ZM74.9786 32.0131C75.7149 32.0131 76.3116 32.6098 76.3116 33.346C76.3116 34.0823 75.7149 34.679 74.9786 34.679C74.2426 34.679 73.6457 34.0823 73.6457 33.346C73.6457 32.6098 74.2426 32.0131 74.9786 32.0131Z" fill="#ffffff"/>
<path d="M68.3138 21.3492C66.1053 21.3492 64.315 23.1396 64.315 25.3481C64.315 27.5566 66.1053 29.347 68.3138 29.347C70.5225 29.347 72.3127 27.5566 72.3127 25.3481C72.3127 23.1396 70.5225 21.3492 68.3138 21.3492ZM68.3138 26.681C67.5778 26.681 66.9809 26.0843 66.9809 25.3481C66.9809 24.6118 67.5778 24.0151 68.3138 24.0151C69.0501 24.0151 69.6468 24.6118 69.6468 25.3481C69.6468 26.0843 69.0501 26.681 68.3138 26.681Z" fill="#ffffff"/>
<path d="M36.3111 0.0227801C35.5897 0.0224767 34.999 0.596049 34.9781 1.31708V1.35574C34.9781 1.84627 34.8568 13.3524 24.3011 13.3524C23.5649 13.3524 22.9682 13.9491 22.9682 14.6853C22.9682 15.4215 23.5649 16.0183 24.3011 16.0183C34.8155 16.0183 34.9768 27.527 34.9781 28.0149C34.9681 28.7511 35.5569 29.3558 36.2931 29.3658C37.0293 29.3758 37.634 28.7871 37.644 28.0509V28.0149C37.644 27.5244 37.7653 16.0183 48.3197 16.0183C49.0559 16.0183 49.6526 15.4215 49.6526 14.6853C49.6526 13.9491 49.0559 13.3524 48.3197 13.3524C37.8293 13.3524 37.6467 1.88892 37.644 1.35574C37.644 0.619565 37.0473 0.0227801 36.3111 0.0227801ZM42.2441 14.6853C39.5146 16.1252 37.4048 18.5123 36.3111 21.3981C35.2174 18.5123 33.1078 16.1252 30.3781 14.6853C33.1078 13.2454 35.2174 10.8583 36.3111 7.97254C37.4048 10.8583 39.5146 13.2454 42.2441 14.6853Z" fill="#ffffff"/>
<path d="M8.33075 40.0257C8.33479 40.762 8.93487 41.3556 9.67104 41.3516C10.4072 41.3473 11.0007 40.7473 10.9967 40.0113C10.9967 39.6845 11.1086 32.0133 17.6615 32.0133C18.3976 32.0133 18.9944 31.4166 18.9944 30.6804C18.9944 29.9443 18.3976 29.3476 17.6615 29.3476C11.1086 29.3476 10.9967 21.6737 10.9967 21.3498V21.3418C10.9945 20.6056 10.3959 20.0106 9.65971 20.0128C8.92354 20.015 8.32855 20.6136 8.33075 21.3498C8.33075 21.6763 8.21878 29.3476 1.66597 29.3476C0.929793 29.3476 0.333008 29.9443 0.333008 30.6804C0.333008 31.4166 0.929793 32.0133 1.66597 32.0133C8.21878 32.0133 8.33075 39.6874 8.33075 40.0113V40.0257ZM6.53926 30.6804C7.88925 29.7804 8.96924 28.5305 9.66371 27.0643C10.3582 28.5305 11.4382 29.7804 12.7882 30.6804C11.4384 31.5808 10.3585 32.8306 9.66371 34.2967C8.96888 32.8306 7.88899 31.5808 6.53926 30.6804Z" fill="#ffffff"/>
<path d="M14.7199 10.9623L16.7193 12.9617C17.2423 13.4669 18.0737 13.4597 18.5879 12.9455C19.102 12.4313 19.1093 11.5999 18.6041 11.0769L16.6047 9.07749C16.27 8.73097 15.7744 8.59201 15.3084 8.71399C14.8423 8.83598 14.4784 9.19992 14.3564 9.66597C14.2344 10.132 14.3734 10.6276 14.7199 10.9623Z" fill="#ffffff"/>
<path d="M10.7209 6.96273C11.2439 7.46788 12.0753 7.46066 12.5894 6.94649C13.1036 6.43233 13.1108 5.60096 12.6057 5.07793L10.6062 3.0785C10.0832 2.57335 9.25183 2.58057 8.73766 3.09474C8.22349 3.6089 8.21627 4.44027 8.72142 4.9633L10.7209 6.96273Z" fill="#ffffff"/>
<path d="M8.72124 12.9615C9.24176 13.4818 10.0855 13.4818 10.606 12.9615L12.6055 10.962C13.1106 10.439 13.1034 9.60763 12.5892 9.09347C12.0751 8.5793 11.2437 8.57208 10.7207 9.07723L8.72124 11.0767C8.20088 11.5972 8.20088 12.4409 8.72124 12.9615Z" fill="#ffffff"/>
<path d="M15.6619 7.35353C16.0154 7.35347 16.3544 7.21297 16.6043 6.96298L18.6037 4.96354C18.9502 4.62888 19.0892 4.13327 18.9672 3.66724C18.8452 3.20119 18.4813 2.83723 18.0152 2.71524C17.5492 2.59325 17.0536 2.73224 16.7189 3.07874L14.7195 5.07818C14.3384 5.4594 14.2244 6.03262 14.4307 6.53063C14.6369 7.02865 15.1228 7.35342 15.6619 7.35353Z" fill="#ffffff"/>
</g>
<defs>
<clipPath id="clip0_153_16">
<rect width="79.9774" height="80" fill="white" transform="translate(0.333008)"/>
</clipPath>
</defs>
</svg>
