<svg width="81" height="80" viewBox="0 0 81 80" fill="none" xmlns="http://www.w3.org/2000/svg">
<g clip-path="url(#clip0_153_10)">
<path d="M74.8238 72.1151C74.281 70.8111 72.3434 70.8744 71.8983 72.2235C71.6812 72.8817 71.9349 73.6288 72.5145 74.012C73.0472 74.3644 73.7525 74.3588 74.2769 73.9933C74.8727 73.578 75.0985 72.7846 74.8238 72.1151Z" fill="#ffffff"/>
<path d="M27.7343 63.1763C24.8727 63.1763 22.5443 65.5046 22.5443 68.3664C22.5443 71.2282 24.8725 73.5564 27.7343 73.5564C30.5963 73.5564 32.9243 71.2282 32.9243 68.3664C32.9243 65.5046 30.596 63.1763 27.7343 63.1763ZM27.7343 70.4313C26.5958 70.4313 25.6694 69.5048 25.6694 68.3662C25.6694 67.2277 26.5958 66.3013 27.7343 66.3013C28.8729 66.3013 29.7994 67.2277 29.7994 68.3662C29.7994 69.5048 28.8729 70.4313 27.7343 70.4313Z" fill="#ffffff"/>
<path d="M79.105 57.2312H70.5869C70.8658 56.6668 71.0547 56.0474 71.1305 55.3899L73.7456 32.7102C75.8445 32.2864 77.4301 30.4279 77.4301 28.2059C77.4301 25.701 75.3399 23.6106 72.8347 23.6106H72.2907L74.407 5.35212C74.7023 2.75133 72.7916 0.3324 70.188 0.0319284C67.5567 -0.271199 65.1698 1.61819 64.864 4.24913L62.6209 23.6106H61.6516C60.9458 22.6168 59.7869 21.9666 58.4778 21.9666H49.203C47.8941 21.9666 46.735 22.6168 46.0292 23.6106H40.433C37.899 23.6106 35.8376 25.6721 35.8376 28.2059C35.8376 30.4855 37.5063 32.3817 39.6863 32.7395L42.2979 55.3901C42.3739 56.0476 42.5626 56.6665 42.8414 57.231H32.4345V9.93386C32.4345 5.62603 28.9298 2.12131 24.6218 2.12131H5.43537C2.83864 2.12131 0.699722 4.19711 0.667378 6.74884C0.651284 8.02353 1.13894 9.22183 2.04036 10.1232C2.92598 11.0089 4.10303 11.4965 5.3546 11.4965H7.58101V44.8451C7.58101 49.0518 11.0034 52.4741 15.2101 52.4741H18.5551C20.2389 52.4741 21.7962 51.9247 23.0596 50.9972V57.7161C18.9664 59.5199 16.1004 63.6135 16.1004 68.3662C16.1004 74.7813 21.3194 80 27.7345 80C31.7714 80 35.3332 77.9324 37.4203 74.8015H45.8799C46.7428 74.8015 47.4424 74.102 47.4424 73.2391C47.4424 72.3762 46.7428 71.6766 45.8799 71.6766H38.8856C39.2861 70.3299 39.4354 68.9208 39.3341 67.5204C39.1477 64.8524 38.0019 62.2937 36.1614 60.3561H77.5425V66.7361C76.3299 65.8881 74.8607 65.4275 73.3812 65.4275C69.7158 65.4275 66.6751 68.1486 66.17 71.6766H59.6284C58.7653 71.6766 58.0658 72.3762 58.0658 73.2391C58.0658 74.102 58.7653 74.8015 59.6284 74.8015H66.4014C67.3014 77.8046 70.0891 80 73.3812 80C77.3988 80 80.6672 76.7318 80.6674 72.7144V58.7937C80.6674 57.9308 79.9679 57.2312 79.105 57.2312ZM4.25006 7.91338C3.94943 7.61275 3.78692 7.21337 3.79223 6.78853C3.80301 5.93821 4.54021 5.2465 5.43553 5.2465H23.0593V8.37151H5.3546C4.9377 8.37151 4.54537 8.20885 4.25006 7.91338ZM23.0591 44.8449C23.0591 47.3287 21.0386 49.3489 18.555 49.3489H15.2101C12.7265 49.3489 10.706 47.3285 10.706 44.8449V11.4972H23.0591V44.8449ZM26.1845 56.8345V5.5143C28.0034 6.15915 29.3094 7.89698 29.3094 9.93401V56.8381C28.2756 56.6976 27.2187 56.6963 26.1845 56.8345ZM27.7343 76.8751C23.0424 76.8751 19.2253 73.058 19.2253 68.3662C19.2253 63.7357 23.1016 59.8572 27.7343 59.8572C32.0918 59.8572 35.847 63.3046 36.211 67.6508C36.613 72.5471 32.6469 76.8751 27.7343 76.8751ZM67.9683 4.60945C68.0751 3.69053 68.9094 3.03006 69.8287 3.13633C70.7398 3.24148 71.4056 4.08649 71.302 4.99572L69.1447 23.6106H65.7669L67.9683 4.60945ZM62.3689 26.7357H72.8347C73.6361 26.7357 74.305 27.4048 74.305 28.2059C74.305 29.0166 73.6454 29.6762 72.8347 29.6762H62.3689V26.7357ZM49.2028 25.0917H58.4778C58.8915 25.0917 59.2435 25.4424 59.2435 25.8575V41.0091H55.5033V29.9471C55.5033 29.0844 54.8037 28.3846 53.9408 28.3846C53.0777 28.3846 52.3784 29.0844 52.3784 29.9471V32.8166C52.2733 32.8068 52.1671 32.8013 52.0595 32.8013H48.7548C48.5799 32.8013 48.4377 32.6584 48.4377 32.4826V25.8577C48.4377 25.4428 48.789 25.0917 49.2028 25.0917ZM38.9625 28.2059C38.9625 27.3953 39.6221 26.7357 40.433 26.7357H45.3119V29.6762H40.433C39.6221 29.6762 38.9625 29.0168 38.9625 28.2059ZM47.8704 57.2312C46.6084 57.2312 45.5472 56.2854 45.4024 55.0319L42.839 32.8013H45.3272C45.5015 34.5453 46.9941 35.9269 48.7553 35.9269H52.0599C52.2355 35.9269 52.3784 36.0695 52.3784 36.2451V41.2498C52.3784 42.8402 53.6722 44.1347 55.2626 44.1347H59.4842C60.4784 44.1347 61.3567 43.6291 61.8753 42.8618C62.1869 42.4011 62.3689 41.8465 62.3689 41.25V32.8015H70.5892L68.0258 55.0319C67.8809 56.2856 66.82 57.2312 65.5578 57.2312H47.8704ZM73.3812 76.8751C71.2167 76.8751 69.4336 75.2135 69.2385 73.0988C69.0251 70.7317 70.9932 68.553 73.3816 68.553C75.6758 68.553 77.5423 70.4197 77.5425 72.714C77.5425 75.0082 75.6758 76.8751 73.3812 76.8751Z" fill="#ffffff"/>
<path d="M53.6206 71.9402C52.4411 71.1531 50.8706 72.294 51.2488 73.6553C51.4273 74.2975 52.0111 74.7649 52.6768 74.7991C53.3426 74.8333 53.9695 74.4202 54.2095 73.8013C54.4688 73.1322 54.2248 72.3351 53.6206 71.9402Z" fill="#ffffff"/>
</g>
<defs>
<clipPath id="clip0_153_10">
<rect width="80.0004" height="80" fill="white" transform="translate(0.666992)"/>
</clipPath>
</defs>
</svg>
